<svg xmlns="http://www.w3.org/2000/svg" xmlns:xlink="http://www.w3.org/1999/xlink" width="100%" height="100%" version="1.1" viewBox="0 0 1554 222" xml:space="preserve" style="fill-rule:evenodd;clip-rule:evenodd"><g><g><path d="M4.92,8.303L87.031,8.303C108.251,8.303 121.782,20.297 127.933,35.673C132.545,47.667 132.545,61.506 127.933,73.5C121.782,88.876 108.251,100.87 87.031,100.87L4.92,100.87L4.92,8.303L4.92,8.303ZM87.031,3.383C66.734,3.383 20.605,3.383 0,3.383L0,218.346C23.065,218.346 72.27,218.346 95.642,218.346C166.374,218.346 170.064,113.171 107.02,102.1C119.322,96.872 127.625,87.031 132.238,75.345C137.158,62.121 137.158,46.745 132.238,33.828C125.472,16.607 110.403,3.383 87.031,3.383L87.031,3.383ZM4.92,105.79L95.642,105.79C164.221,105.79 164.221,213.733 95.642,213.733L4.92,213.733L4.92,105.79L4.92,105.79Z" transform="matrix(1.06885,0,0,1,0,0) matrix(0.935581,0,0,1,0,0)" style="fill:#fff;fill-rule:nonzero"/><path d="M248.484,6.458L301.072,141.464L196.204,141.464L248.484,6.458L248.484,6.458ZM332.44,218.346L337.668,218.346L251.252,0L246.024,0L159.608,218.346L164.836,218.346L194.052,146.077L302.917,146.077L332.44,218.346Z" transform="matrix(1.06885,0,0,1,0,0) matrix(0.935581,0,0,1,0,0)" style="fill:#fff;fill-rule:nonzero"/><path d="M358.58,8.303L440.691,8.303C461.91,8.303 475.442,20.297 481.592,35.673C486.205,47.667 486.205,61.506 481.592,73.5C475.442,88.876 461.91,100.87 440.691,100.87L358.58,100.87L358.58,8.303L358.58,8.303ZM440.691,3.383C420.394,3.383 374.264,3.383 353.66,3.383L353.66,218.346C376.724,218.346 425.929,218.346 449.302,218.346C520.033,218.346 523.724,113.171 460.68,102.1C472.981,96.872 481.285,87.031 485.898,75.345C490.818,62.121 490.818,46.745 485.898,33.828C479.132,16.607 464.063,3.383 440.691,3.383L440.691,3.383ZM358.58,105.79L449.302,105.79C517.881,105.79 517.881,213.733 449.302,213.733L358.58,213.733L358.58,105.79L358.58,105.79Z" transform="matrix(1.06885,0,0,1,0,0) matrix(0.935581,0,0,1,0,0)" style="fill:#fff;fill-rule:nonzero"/><path d="M500.352,3.383L579.387,129.47L579.387,218.346L584.307,218.346L584.307,129.47L663.343,3.383L657.499,3.383L581.847,124.55L506.195,3.383L500.352,3.383L500.352,3.383Z" transform="matrix(1.06885,0,0,1,0,0) matrix(0.935581,0,0,1,0,0)" style="fill:#fff;fill-rule:nonzero"/><path d="M665.803,111.326C665.803,141.156 678.104,168.219 696.556,187.901C715.315,207.583 741.763,219.884 770.978,219.884C821.105,219.884 860.469,186.671 872.771,137.774L842.325,137.774C831.254,170.372 803.576,189.131 770.978,189.131C750.374,189.131 731.614,180.213 718.083,166.066C704.552,151.92 695.941,132.853 695.941,111.326C695.941,89.184 704.552,70.117 718.083,55.97C731.614,41.824 750.374,32.906 770.978,32.906C802.654,32.906 829.101,49.205 840.48,81.495L871.233,81.495C858.932,32.906 820.183,2.153 770.978,2.153C741.763,2.153 715.315,14.761 696.556,34.136C678.104,53.818 665.803,80.88 665.803,111.326Z" transform="matrix(1.06885,0,0,1,0,0) matrix(0.935581,0,0,1,0,0)" style="fill:#fff;fill-rule:nonzero"/><path d="M1070.51,110.711C1070.51,132.853 1061.59,152.227 1047.75,166.374C1033.3,180.828 1013.31,189.746 992.09,189.746C970.871,189.746 951.189,180.828 937.042,166.374C922.896,152.227 913.978,132.545 913.978,110.711C913.978,88.876 922.896,69.194 937.042,55.048C951.189,40.594 970.871,31.676 992.09,31.676C1013.31,31.676 1033.3,40.594 1047.75,55.048C1061.59,69.194 1070.51,88.569 1070.51,110.711L1070.51,110.711ZM882.61,110.711C882.61,141.156 895.218,168.527 914.593,188.516C934.275,208.813 961.952,221.114 992.09,221.114C1022.54,221.114 1049.91,208.813 1069.89,188.516C1089.27,168.527 1101.88,141.156 1101.88,110.711C1101.88,80.265 1089.27,52.895 1069.89,32.906C1049.91,12.916 1022.54,0.308 992.09,0.308C961.952,0.308 934.275,12.916 914.593,32.906C895.218,52.895 882.61,80.265 882.61,110.711L882.61,110.711Z" transform="matrix(1.06885,0,0,1,0,0) matrix(0.935581,0,0,1,0,0)" style="fill:#fff;fill-rule:nonzero"/><path d="M1117.26,111.326C1117.26,141.156 1129.56,168.219 1148.01,187.901C1166.77,207.583 1193.22,219.884 1222.43,219.884C1272.56,219.884 1311.93,186.671 1324.23,137.774L1293.78,137.774C1282.71,170.372 1255.03,189.131 1222.43,189.131C1201.83,189.131 1183.07,180.213 1169.54,166.066C1156.01,151.92 1147.4,132.853 1147.4,111.326C1147.4,89.184 1156.01,70.117 1169.54,55.97C1183.07,41.824 1201.83,32.906 1222.43,32.906C1254.11,32.906 1280.56,49.205 1291.94,81.495L1322.69,81.495C1310.39,32.906 1271.64,2.153 1222.43,2.153C1193.22,2.153 1166.77,14.761 1148.01,34.136C1129.56,53.818 1117.26,80.88 1117.26,111.326Z" transform="matrix(1.06885,0,0,1,0,0) matrix(0.935581,0,0,1,0,0)" style="fill:#fff;fill-rule:nonzero"/><path d="M1521.97,110.711C1521.97,132.853 1513.05,152.227 1499.21,166.374C1484.76,180.828 1464.77,189.746 1443.55,189.746C1422.33,189.746 1402.65,180.828 1388.5,166.374C1374.36,152.227 1365.44,132.545 1365.44,110.711C1365.44,88.876 1374.36,69.194 1388.5,55.048C1402.65,40.594 1422.33,31.676 1443.55,31.676C1464.77,31.676 1484.76,40.594 1499.21,55.048C1513.05,69.194 1521.97,88.569 1521.97,110.711L1521.97,110.711ZM1334.07,110.711C1334.07,141.156 1346.68,168.527 1366.05,188.516C1385.73,208.813 1413.41,221.114 1443.55,221.114C1474,221.114 1501.37,208.813 1521.36,188.516C1540.73,168.527 1553.34,141.156 1553.34,110.711C1553.34,80.265 1540.73,52.895 1521.36,32.906C1501.37,12.916 1474,0.308 1443.55,0.308C1413.41,0.308 1385.73,12.916 1366.05,32.906C1346.68,52.895 1334.07,80.265 1334.07,110.711L1334.07,110.711Z" transform="matrix(1.06885,0,0,1,0,0) matrix(0.935581,0,0,1,0,0)" style="fill:#fff;fill-rule:nonzero"/></g><g><g transform="matrix(1.06885,0,0,1,0,0) matrix(0.130981,0,0,0.14,1440.18,14) matrix(1,0,0,1,-100,-100)"><clipPath id="_clip1"><rect width="200" height="200" x="0" y="0"/></clipPath><g clip-path="url(#_clip1)"><circle cx="100" cy="100" r="88.5" style="fill:none;stroke:#fff;stroke-width:20px"/><path d="M94.6,92C100.1,92 104.1,90.9 106.5,88.8C108.9,86.8 110.2,83.4 110.2,78.6C110.2,73.9 108.9,70.6 106.5,68.5C104.1,66.5 100.1,65.5 94.6,65.5L83.4,65.5L83.4,92L94.6,92M83.4,110.3L83.4,149.3L56.8,149.3L56.8,46.2L97.4,46.2C111,46.2 120.9,48.5 127.2,53.1C133.6,57.6 136.7,64.8 136.7,74.7C136.7,81.5 135.1,87.1 131.8,91.5C128.5,95.8 123.6,99.1 116.9,101.1C120.6,102 123.8,103.9 126.7,106.8C129.6,109.7 132.5,114.1 135.4,120.1L149.9,149.3L121.6,149.3L109,123.7C106.5,118.6 103.9,115 101.3,113.2C98.7,111.3 95.2,110.3 90.9,110.3L83.4,110.3" style="fill:#fff;fill-rule:nonzero"/></g></g></g></g></svg>