<svg xmlns="http://www.w3.org/2000/svg" xmlns:xlink="http://www.w3.org/1999/xlink" width="100%" height="100%" version="1.1" viewBox="0 0 404 55" xml:space="preserve" style="fill-rule:evenodd;clip-rule:evenodd;stroke-linejoin:round;stroke-miterlimit:1.41421"><g><g><path d="M528.975,196.639C528.393,197.9 528.329,199.26 529.428,200.391C530.172,201.199 531.563,201.297 532.534,200.973C532.921,200.843 533.213,200.65 533.44,200.391C534.539,199.26 534.474,197.9 533.924,196.639C533.342,195.41 532.339,194.212 531.434,193.34C530.528,194.212 529.525,195.41 528.975,196.639M558.961,166.977C558.767,167.138 558.573,167.364 558.379,167.592C556.503,170.083 556.147,173.997 556.697,177.458C556.794,178.137 556.956,178.783 557.117,179.43C557.312,180.045 557.506,180.628 557.732,181.177L557.764,181.21C558.12,182.051 558.573,182.859 559.09,183.603C561.613,181.533 563.522,178.848 564.622,176.099C565.755,173.349 565.851,170.503 564.914,168.465C563.684,165.715 561.16,164.842 558.961,166.977M524.608,159.764C526.387,160.184 528.102,161.154 529.525,162.739C529.978,163.257 530.431,163.871 530.819,164.55C531.046,164.939 531.24,165.326 531.434,165.748C531.628,165.326 531.854,164.939 532.048,164.55C532.469,163.871 532.889,163.257 533.375,162.739C534.765,161.154 536.48,160.184 538.259,159.764C538.065,158.793 537.806,157.887 537.418,157.078C536.189,154.458 533.795,153.164 531.434,153.164C529.072,153.164 526.711,154.458 525.449,157.078C525.093,157.887 524.803,158.793 524.608,159.764M531.434,173.834C532.566,173.834 533.472,172.896 533.472,171.732C533.472,170.599 532.566,169.662 531.434,169.662C530.334,169.662 529.395,170.599 529.395,171.732C529.395,172.896 530.334,173.834 531.434,173.834M526.84,183.507C526.873,183.474 526.808,183.507 526.873,183.474C527.843,182.795 528.781,182.051 529.655,181.274C530.043,180.951 530.431,180.595 530.787,180.239C530.561,179.98 530.334,179.754 530.108,179.494C526.064,175.031 523.541,169.564 522.733,163.193C522.7,162.933 522.668,162.707 522.668,162.512C522.603,161.834 522.538,161.154 522.538,160.476C521.988,160.476 521.438,160.54 520.889,160.669C512.252,163.305 515.682,176.461 519.853,181.469C520.889,182.697 522.215,183.959 523.67,185.319C524.77,184.8 525.837,184.185 526.84,183.507M538.421,185.996C537.418,185.479 536.448,184.898 535.542,184.283L535.51,184.25L535.477,184.25C534.474,183.538 533.536,182.762 532.63,181.985C532.21,181.63 531.822,181.242 531.434,180.886C531.046,181.242 530.657,181.63 530.237,181.985C529.363,182.762 528.393,183.538 527.39,184.25L527.358,184.25L527.358,184.283C526.452,184.898 525.481,185.479 524.447,185.996C526.096,187.452 527.908,189.005 529.687,190.654C530.301,191.109 530.884,191.561 531.434,192.077C531.984,191.561 532.566,191.109 533.181,190.654C534.992,189.005 536.771,187.452 538.421,185.996M540.362,160.476C540.329,161.154 540.297,161.834 540.232,162.512C540.2,162.707 540.167,162.933 540.135,163.193C539.327,169.564 536.803,175.031 532.76,179.494C532.566,179.754 532.307,179.98 532.081,180.239C532.469,180.595 532.825,180.951 533.213,181.274C534.086,182.051 535.024,182.795 535.995,183.474C536.06,183.507 535.995,183.474 536.027,183.507C537.062,184.185 538.097,184.8 539.197,185.319C540.685,183.959 542.011,182.697 543.047,181.469C545.634,178.363 546.798,174.838 547.09,171.765C547.413,168.205 547.704,162.416 541.979,160.669C541.461,160.54 540.912,160.476 540.362,160.476M531.013,167.138C531.013,167.107 531.013,167.107 530.981,167.107C530.722,166.329 530.399,165.65 530.043,165.035C529.687,164.421 529.267,163.839 528.846,163.353C527.584,161.963 526.064,161.089 524.479,160.7C524.091,164.065 524.738,168.108 526.064,171.732C527.26,174.319 528.813,176.714 530.754,178.848C530.981,179.106 531.207,179.334 531.434,179.56C531.66,179.334 531.887,179.106 532.113,178.848C534.054,176.714 535.639,174.319 536.803,171.732C538.129,168.108 538.809,164.065 538.388,160.7C536.803,161.089 535.283,161.963 534.054,163.353C533.601,163.839 533.213,164.421 532.857,165.035C532.469,165.65 532.145,166.329 531.887,167.107L531.887,167.138L531.466,168.302L531.013,167.138ZM497.954,168.466C497.048,170.503 497.146,173.349 498.245,176.099C499.345,178.848 501.254,181.533 503.81,183.603C504.327,182.859 504.747,182.051 505.136,181.21L505.136,181.177C505.136,180.255 505.748,179.434 505.956,178.553C506.523,176.154 506.579,173.391 506.007,170.988C505.673,169.582 504.801,168.181 503.718,167.225C501.859,165.583 499.382,165.253 497.954,168.466M589.82,193.858C585.777,193.858 581.993,193.663 578.531,193.243C572.903,192.596 568.083,191.335 564.331,189.329C563.845,189.07 563.36,188.779 562.907,188.488C562.455,188.197 562.001,187.906 561.613,187.582C561.064,187.161 560.546,186.709 560.094,186.224C558.8,186.935 557.376,187.517 555.92,187.906L555.888,187.906L555.888,187.937C554.918,188.197 553.883,188.392 552.88,188.519C551.845,188.649 550.843,188.714 549.839,188.714C546.572,188.714 543.306,188.067 540.394,186.87C539.683,187.388 538.938,187.873 538.194,188.359C537.709,188.682 537.515,188.811 537.321,188.941C535.574,190.074 533.698,191.302 532.113,192.693C533.051,193.663 534.119,194.893 534.733,196.251C535.445,197.836 535.51,199.55 534.086,201.039C533.051,202.17 531.402,202.3 530.075,201.847C529.525,201.686 529.104,201.394 528.781,201.039C527.358,199.55 527.423,197.836 528.134,196.251C528.749,194.893 529.817,193.663 530.754,192.693C529.17,191.302 527.325,190.074 525.579,188.941C525.385,188.811 525.158,188.682 524.673,188.359C523.929,187.873 523.218,187.388 522.506,186.87C517.612,188.86 512.098,189.265 506.979,187.937L506.979,187.906C505.491,187.517 504.101,186.935 502.774,186.224C502.321,186.709 501.803,187.161 501.286,187.582C497.583,190.424 493.01,191.815 488.475,192.626C483.387,193.536 478.21,193.858 473.047,193.858C406.185,193.858 478.902,193.858 473.047,193.858L335.409,193.858C334.859,194.796 334.115,195.41 332.659,195.41C331.204,195.41 329.457,193.988 329.457,192.24C329.457,190.494 331.204,189.038 332.659,189.038C334.115,189.038 334.795,189.653 335.377,190.59L478.287,190.59C482.455,190.59 486.58,190.4 490.726,189.976C494.157,189.626 497.914,189.028 500.704,186.837C501.157,186.481 501.577,186.127 501.966,185.739C499.604,184.283 497.631,182.277 496.273,179.85C495.851,179.042 495.496,178.201 495.205,177.328C493.521,172.78 494.594,164.558 500.93,164.713C502.224,164.744 503.518,165.295 504.553,166.297C504.78,166.491 505.006,166.751 505.2,167.01C508.028,170.771 508.073,177.421 505.977,181.533L505.944,181.598C505.556,182.503 505.071,183.344 504.521,184.153C509.664,187.775 515.907,188.132 521.503,186.191C521.244,185.996 520.985,185.803 520.759,185.609C518.094,183.314 515.72,181.23 514.243,177.943C512.879,174.907 512.377,171.446 513.075,168.174C513.91,164.259 516.706,160.741 520.662,159.764L520.694,159.764C521.277,159.634 521.891,159.536 522.506,159.536C522.538,157.208 522.894,154.976 523.8,153.1C525.417,149.574 528.425,147.827 531.434,147.827C534.442,147.827 537.45,149.574 539.1,153.1C539.974,154.976 540.329,157.208 540.362,159.536C540.976,159.536 541.591,159.634 542.205,159.764L542.238,159.764C542.593,159.859 542.95,159.957 543.273,160.054C543.629,160.184 543.952,160.313 544.244,160.476C545.86,161.284 547.155,162.481 548.093,163.968L548.093,164.001L548.125,164.001C548.384,164.421 548.61,164.842 548.836,165.295C549.063,165.78 549.225,166.233 549.386,166.718C550.227,169.178 550.357,171.926 549.807,174.449C549.451,176.131 548.869,177.619 548.19,178.945C547.478,180.239 546.637,181.405 545.699,182.44L545.667,182.44L545.667,182.471C544.599,183.635 543.403,184.671 542.141,185.609C541.882,185.803 541.623,185.996 541.364,186.191C546.961,188.132 553.203,187.775 558.347,184.153C557.797,183.344 557.312,182.503 556.923,181.598L556.891,181.533C556.665,180.951 556.438,180.336 556.244,179.688C556.082,179.042 555.92,178.331 555.791,177.619C555.209,173.931 555.598,169.727 557.667,167.01C557.894,166.751 558.087,166.491 558.315,166.297C559.381,165.295 560.643,164.744 561.937,164.713C563.231,164.647 564.525,165.068 565.624,165.974C565.948,166.2 566.239,166.491 566.498,166.815C566.725,167.041 566.919,167.331 567.081,167.592C567.307,167.915 567.501,168.271 567.662,168.627C568.504,170.405 568.665,172.475 568.342,174.546L568.342,174.579C568.213,175.548 567.986,176.455 567.695,177.328C567.404,178.201 567.016,179.042 566.595,179.85C565.237,182.277 563.263,184.283 560.902,185.739C561.291,186.127 561.711,186.481 562.164,186.837C562.552,187.129 562.972,187.421 563.393,187.711C563.457,187.743 563.555,187.808 563.652,187.873C569.571,189.911 576.041,190.72 584.58,190.59L727.523,190.59C728.073,189.653 728.784,189.038 730.24,189.038C731.696,189.038 733.41,190.494 733.41,192.24C733.41,193.988 731.696,195.41 730.24,195.41C728.784,195.41 728.04,194.796 727.491,193.858L589.885,193.858L589.82,193.858Z" transform="matrix(1,0,0,1,-329.457,-147.827)" style="fill-rule:nonzero"/></g><g><path d="M534.527,195.969L710.076,197.419L534.527,198.87L534.527,195.969Z" transform="matrix(1,0,0,1,-329.457,-147.827)" style="fill-rule:nonzero"/></g><g><path d="M353.154,197.419L528.424,195.969L528.424,198.869L353.154,197.419Z" transform="matrix(1,0,0,1,-329.457,-147.827)" style="fill-rule:nonzero"/></g></g></svg>